# xmcd
#
# Track frame offsets: 
#        150
#        14201
#        27076
#        52303
#        70719
#        84807
#        105211
#        119389
#        135286
#        155680
#        169310
#        189266
#        204991
#        218642
#
# Disc length: 3265 seconds
#
# Revision: 8
# Processed by: cddbd v1.5.2PL0 Copyright (c) Steve Scherf et al.
# Submitted via: ExactAudioCopyFreeDBPlugin 1.0
#
DISCID=b50cbf0e
DTITLE=J.J. CALE - J.J. Cale Live
DYEAR=2001
DGENRE=Rock
TTITLE0=After midnight  [Carnegie Hall, New York, NY, 1996-03-29]
TTITLE1=Old man  [Carnegie Hall, New York, NY, 1996-03-29]
TTITLE2=Call me the breeze  [Carnegie Hall, New York, NY, 1996-03-29]
TTITLE3=Sensitive kind  [Carnegie Hall, New York, NY, 1996-03-29]
TTITLE4=Cocaine  [Philharmonie, Munich, Germany, 1994-09-24]
TTITLE5=Money talks  [Flynn Theater, Burlington, VT, 1993-06-04]
TTITLE6=River boat song  [The Great American Music Hall, San Francisco
TTITLE6=, CA, 1994-09-01]
TTITLE7=Living here too  [Hammersmith Apollo, London, England, 1994-10
TTITLE7=06]
TTITLE8=Mama don't  [Hammersmith Apollo, London, England, 1994-10-06]
TTITLE9=People lie  [The Great American Music Hall, San Francisco, CA,
TTITLE9=1994-09-01]
TTITLE10=Humdinger  [Sommerville Theater, Sommerville, MA, 1993-06-05]
TTITLE11=Thirteen days  [Sommerville Theater, Sommerville, MA, 1993-06
TTITLE11=05]
TTITLE12=Magnolia  [Carnegie Hall, New York, NY, 1996-03-29)
TTITLE13=Ride me high  [Park West, Chicago, IL, 1990-04-20]
EXTD=YEAR: 2001 ID3G: 0
EXTT0=
EXTT1=
EXTT2=
EXTT3=
EXTT4=
EXTT5=
EXTT6=
EXTT7=
EXTT8=
EXTT9=
EXTT10=
EXTT11=
EXTT12=
EXTT13=
PLAYORDER=
